# xmcd
#
# Track frame offsets: 
#        150
#        15507
#        25975
#        38347
#        50970
#        66372
#        76597
#        86735
#        101307
#        114242
#        121125
#
# Disc length: 1811 seconds
#
# Revision: 2
# Processed by: cddbd v1.5.2PL0 Copyright (c) Steve Scherf et al.
# Submitted via: ExactAudioCopy v1.3
#
DISCID=7a07110b
DTITLE=Elis Regina - Coleção Folha O Melhor de Elis Regina - CD16 - Co
DTITLE=mo and Porque (1969)
DYEAR=2006
DGENRE=MPB
TTITLE0=Medley: Aquarela Do Brasil - Nega Do Cabelo Duro
TTITLE1=O Sonho
TTITLE2=Vera Cruz
TTITLE3=Casa Forte
TTITLE4=Canto De Ossanha
TTITLE5=Giro
TTITLE6=O Barquinho
TTITLE7=Andança
TTITLE8=Recit De Cassard
TTITLE9=Samba da Pergunta
TTITLE10=Memórias de Marta Saré
EXTD=Elis, Como and Porque (1969)
EXTT0=
EXTT1=
EXTT2=
EXTT3=
EXTT4=
EXTT5=
EXTT6=
EXTT7=
EXTT8=
EXTT9=
EXTT10=
PLAYORDER=
